<?xml version="1.0" encoding="UTF-8" standalone="no"?>
<svg xmlns="http://www.w3.org/2000/svg" width="48" height="48" viewBox="0 0 48 48">
  <defs>
    <linearGradient id="gradient" x1="0%" y1="0%" x2="100%" y2="100%">
      <stop offset="0%" style="stop-color:#3498db;stop-opacity:1" />
      <stop offset="100%" style="stop-color:#2c3e50;stop-opacity:1" />
    </linearGradient>
  </defs>
  <circle cx="24" cy="24" r="20" fill="url(#gradient)" />
  <path d="M24,4 A20,20 0 0 1 24,44 A20,20 0 0 1 24,4 z" fill="none" stroke="#ffffff" stroke-width="2" />
  <circle cx="24" cy="24" r="16" fill="none" stroke="#ffffff" stroke-width="1.5" stroke-dasharray="2,2" />
  <path d="M24,8 L24,16 M24,32 L24,40 M8,24 L16,24 M32,24 L40,24" stroke="#ffffff" stroke-width="2" />
  <circle cx="24" cy="24" r="3" fill="#ffffff" />
  <path d="M24,8 A16,16 0 0 1 40,24 A16,16 0 0 1 24,40 z" fill="#ffffff" fill-opacity="0.2" />
</svg>